<svg width="21" height="20" viewBox="0 0 21 20" fill="none" xmlns="http://www.w3.org/2000/svg">
<path fill-rule="evenodd" clip-rule="evenodd" d="M20.4378 3.45306C20.684 4.086 20.8559 4.81644 20.9028 5.87891C20.9496 6.94534 20.9536 7.28516 20.9536 10C20.9536 12.7148 20.9419 13.0547 20.895 14.1211C20.8481 15.1836 20.6761 15.9102 20.43 16.5469C19.9103 17.8906 18.8474 18.9531 17.503 19.4727C16.87 19.7188 16.1393 19.8906 15.0764 19.9374C14.0095 19.9844 13.6696 19.996 10.9537 19.996C8.23779 19.996 7.89769 19.9844 6.83099 19.9374C5.76796 19.8906 5.0412 19.7188 4.40421 19.4727C3.73988 19.2227 3.13418 18.8281 2.63395 18.3203C2.12594 17.8203 1.73135 17.2188 1.47735 16.5469C1.23113 15.914 1.05909 15.1836 1.01223 14.1211C0.965367 13.0547 0.953613 12.7148 0.953613 10C0.953613 7.28516 0.965367 6.94534 1.0162 5.87494C1.06306 4.81247 1.23494 4.086 1.48116 3.44925C1.73135 2.78519 2.12594 2.17972 2.63395 1.67969C3.13418 1.16791 3.73592 0.777283 4.40817 0.523376C5.0412 0.277405 5.77192 0.105438 6.83481 0.0585938C7.90166 0.0117493 8.24161 0 10.9575 0C13.6734 0 14.0134 0.0117493 15.0842 0.062561C16.1471 0.109406 16.874 0.281219 17.5108 0.527344C18.1751 0.777283 18.7808 1.17188 19.2811 1.67969C19.793 2.17972 20.1838 2.78122 20.4378 3.45306ZM18.7568 15.8984C18.8935 15.5469 19.0576 15.0195 19.1007 14.043C19.1475 12.9883 19.1593 12.6758 19.1593 10.0078C19.1593 7.33978 19.1475 7.02347 19.1007 5.96878C19.0576 4.99603 18.8935 4.46487 18.7568 4.11331C18.5965 3.67966 18.3425 3.28903 18.0103 2.96478C17.6899 2.63275 17.2952 2.37885 16.8615 2.21878C16.5098 2.08206 15.9823 1.91803 15.0053 1.875C13.954 1.82816 13.6376 1.81641 10.9646 1.81641C8.2957 1.81641 7.97911 1.82816 6.92401 1.875C5.95104 1.91803 5.41952 2.08206 5.06782 2.21878C4.634 2.37885 4.24322 2.63275 3.919 2.96478C3.58287 3.28522 3.32886 3.67966 3.16858 4.11331C3.03181 4.46487 2.86772 4.99222 2.82482 5.96878C2.77781 7.0195 2.7662 7.33978 2.7662 10.0078C2.7662 12.6758 2.77781 12.9922 2.82482 14.0469C2.86772 15.0195 3.03181 15.5508 3.16858 15.9024C3.32886 16.3359 3.58287 16.7265 3.91503 17.0508C4.23544 17.3828 4.63018 17.6367 5.06385 17.7969C5.41555 17.9337 5.9431 18.0977 6.92004 18.1406C7.97132 18.1876 8.29173 18.1992 10.9608 18.1992C13.6298 18.1992 13.9462 18.1876 15.0013 18.1406C15.9745 18.0977 16.5058 17.9337 16.8575 17.7969C17.729 17.4609 18.4206 16.7696 18.7568 15.8984Z" fill="white"/>
<path fill-rule="evenodd" clip-rule="evenodd" d="M5.81885 10C5.81885 7.164 8.12062 4.86328 10.9576 4.86328C13.7947 4.86328 16.0963 7.164 16.0963 10C16.0963 12.836 13.7947 15.1367 10.9576 15.1367C8.12062 15.1367 5.81885 12.836 5.81885 10ZM7.6235 10C7.6235 11.8399 9.11639 13.3321 10.9569 13.3321C12.7975 13.3321 14.2902 11.8399 14.2902 10C14.2902 8.1601 12.7975 6.66794 10.9569 6.66794C9.11639 6.66794 7.6235 8.1601 7.6235 10Z" fill="white"/>
<path d="M17.4983 4.66013C17.4983 5.32236 16.9613 5.85931 16.2989 5.85931C15.6367 5.85931 15.0997 5.32236 15.0997 4.66013C15.0997 3.99774 15.6367 3.46094 16.2989 3.46094C16.9613 3.46094 17.4983 3.99774 17.4983 4.66013Z" fill="white"/>
</svg>
