<svg width="21" height="20" viewBox="0 0 21 20" fill="none" xmlns="http://www.w3.org/2000/svg">
<path d="M20.9487 19.9999V19.999H20.9537V12.664C20.9537 9.07569 20.1812 6.31152 15.9862 6.31152C13.9695 6.31152 12.6162 7.41819 12.0637 8.46736H12.0053V6.64652H8.02783V19.999H12.1695V13.3874C12.1695 11.6465 12.4995 9.96319 14.6553 9.96319C16.7795 9.96319 16.8112 11.9499 16.8112 13.499V19.9999H20.9487Z" fill="white"/>
<path d="M1.28357 6.64746H5.43024V20H1.28357V6.64746Z" fill="white"/>
<path d="M3.35528 0C2.02945 0 0.953613 1.07583 0.953613 2.40167C0.953613 3.7275 2.02945 4.82583 3.35528 4.82583C4.68111 4.82583 5.75695 3.7275 5.75695 2.40167C5.75611 1.07583 4.68028 0 3.35528 0Z" fill="white"/>
</svg>
