<svg width="22" height="22" viewBox="0 0 22 22" fill="none" xmlns="http://www.w3.org/2000/svg">
<path d="M11 10.9997C9.99163 10.9997 9.16663 10.1747 9.16663 9.16634C9.16663 8.15801 9.99163 7.33301 11 7.33301C12.0083 7.33301 12.8333 8.15801 12.8333 9.16634C12.8333 10.1747 12.0083 10.9997 11 10.9997ZM16.5 9.34967C16.5 6.02217 14.0708 3.66634 11 3.66634C7.92913 3.66634 5.49996 6.02217 5.49996 9.34967C5.49996 11.4947 7.28746 14.3363 11 17.728C14.7125 14.3363 16.5 11.4947 16.5 9.34967ZM11 1.83301C14.85 1.83301 18.3333 4.78467 18.3333 9.34967C18.3333 12.393 15.8858 15.9955 11 20.1663C6.11413 15.9955 3.66663 12.393 3.66663 9.34967C3.66663 4.78467 7.14996 1.83301 11 1.83301Z" fill="#F6B719"/>
</svg>
